<?xml version="1.0" standalone="no"?>
<!DOCTYPE svg PUBLIC "-//W3C//DTD SVG 20010904//EN"
 "http://www.w3.org/TR/2001/REC-SVG-20010904/DTD/svg10.dtd">
<svg version="1.0" xmlns="http://www.w3.org/2000/svg"
 width="2048.000000pt" height="2048.000000pt" viewBox="0 0 2048.000000 2048.000000"
 preserveAspectRatio="xMidYMid meet">

<g transform="translate(0.000000,2048.000000) scale(0.100000,-0.100000)"
fill="#000000" stroke="none">
<path d="M12178 16510 c-82 -10 -210 -42 -303 -77 -396 -147 -704 -521 -781
-947 -31 -169 -15 -420 37 -576 114 -348 401 -650 739 -777 158 -60 236 -75
415 -80 147 -4 184 -2 273 16 386 80 693 310 870 650 101 194 132 324 132 550
0 167 -15 269 -60 403 -75 223 -244 457 -433 599 -103 78 -293 170 -417 203
-151 40 -322 53 -472 36z"/>
<path d="M9392 16298 c-55 -95 -148 -256 -207 -358 -60 -102 -127 -219 -150
-260 -23 -41 -95 -169 -162 -285 -66 -115 -175 -307 -243 -425 -137 -240 -194
-339 -332 -580 -52 -91 -128 -223 -168 -295 -40 -71 -117 -206 -170 -300 -54
-93 -136 -237 -182 -320 -170 -302 -382 -673 -448 -785 -37 -63 -106 -182
-152 -265 -47 -82 -139 -244 -205 -360 -66 -115 -176 -309 -245 -430 -203
-355 -245 -429 -371 -645 -66 -113 -160 -277 -210 -365 -49 -88 -157 -277
-240 -420 -82 -143 -187 -325 -232 -405 -45 -80 -112 -196 -149 -259 -36 -63
-64 -117 -60 -120 9 -9 2776 -13 2786 -3 5 5 -39 44 -97 87 -214 159 -348 336
-396 523 -47 185 0 393 129 564 92 122 331 307 570 442 134 76 488 221 746
307 514 171 1309 344 1908 414 117 14 249 29 293 35 167 21 580 60 644 60 100
0 103 6 57 92 -56 106 -202 363 -336 593 -64 110 -143 247 -175 305 -32 58
-79 141 -105 185 -118 198 -156 264 -280 485 -73 129 -147 258 -165 285 -17
28 -62 104 -100 170 -37 66 -87 154 -110 195 -54 95 -472 823 -620 1080 -62
107 -154 269 -205 360 -52 91 -134 235 -183 320 -50 85 -121 211 -159 280 -90
162 -157 270 -168 270 -5 0 -53 -78 -108 -172z m146 -3170 c16 -29 62 -111
102 -183 124 -222 369 -653 460 -810 178 -306 200 -347 195 -356 -4 -5 -22 -9
-41 -9 -52 0 -373 -37 -518 -61 -193 -30 -652 -123 -806 -163 -74 -19 -197
-51 -274 -71 -76 -20 -140 -34 -142 -32 -5 4 37 81 133 247 84 146 384 676
478 845 43 77 112 201 155 275 43 74 108 188 145 253 37 64 71 117 75 117 5 0
22 -24 38 -52z"/>
<path d="M12548 12957 c-175 -66 -264 -219 -239 -417 6 -41 19 -145 30 -230
11 -85 37 -281 56 -435 20 -154 49 -379 65 -500 16 -121 36 -275 45 -343 9
-67 18 -129 21 -137 5 -13 77 -15 548 -15 l542 0 18 -37 c10 -21 44 -99 76
-173 219 -512 377 -861 400 -885 20 -19 20 -19 77 0 32 11 170 65 308 120 185
75 251 106 253 119 4 17 -81 237 -101 263 -6 9 -21 7 -60 -9 -110 -44 -272
-98 -284 -94 -13 6 -78 139 -133 276 -38 96 -93 220 -169 383 -23 49 -41 90
-41 93 0 2 -27 62 -61 133 -45 95 -67 131 -83 135 -11 3 -238 6 -503 6 l-483
0 -5 23 c-10 43 -25 152 -25 179 l0 28 403 2 402 3 3 151 3 151 -33 7 c-18 4
-209 3 -425 0 -333 -6 -393 -5 -397 7 -10 26 -67 492 -62 504 2 7 22 15 43 19
99 16 205 96 247 185 17 37 21 65 21 146 0 87 -3 107 -26 156 -34 73 -96 134
-168 167 -67 32 -201 41 -263 19z"/>
<path d="M12200 11701 c-87 -34 -208 -121 -334 -241 -290 -275 -409 -642 -331
-1024 42 -210 72 -282 180 -442 36 -52 65 -99 65 -104 0 -25 -428 156 -593
251 -272 156 -432 291 -492 412 -68 139 -44 325 60 473 43 60 75 89 195 180
235 177 608 349 990 455 85 24 119 44 55 34 -162 -27 -541 -105 -631 -130 -64
-18 -280 -82 -409 -122 -108 -33 -370 -132 -497 -187 -239 -105 -426 -224
-558 -355 -135 -136 -187 -247 -178 -386 13 -205 189 -376 593 -578 413 -206
1049 -375 1740 -462 474 -59 762 -72 910 -40 250 53 446 153 616 313 73 69
177 192 223 265 21 34 18 44 -69 242 -34 77 -67 155 -74 173 -16 38 -27 41
-35 8 -14 -57 -82 -203 -125 -269 -144 -220 -353 -361 -593 -398 -100 -16
-283 -6 -383 21 -264 71 -493 263 -603 505 -50 112 -65 192 -66 350 -1 120 2
151 22 215 59 187 167 334 338 461 69 51 94 76 94 92 0 53 -45 307 -55 307 -5
-1 -30 -9 -55 -19z"/>
<path d="M12658 8600 c-281 -48 -437 -199 -438 -427 0 -76 36 -175 83 -229 61
-70 183 -124 416 -184 109 -28 212 -61 236 -74 111 -66 105 -169 -12 -223
-135 -62 -395 -32 -569 67 -30 16 -61 30 -69 30 -16 0 -59 -84 -90 -177 -20
-58 -13 -67 88 -116 244 -119 534 -138 771 -52 130 48 228 146 263 265 24 80
21 204 -6 266 -56 126 -170 188 -491 270 -211 54 -272 80 -295 125 -19 37 -15
87 10 126 28 42 116 75 216 81 105 6 176 -7 317 -54 79 -27 107 -32 117 -24
21 17 77 181 71 206 -11 41 -125 90 -280 119 -82 16 -258 18 -338 5z"/>
<path d="M7975 8582 c-11 -2 -24 -8 -29 -12 -4 -5 -8 -201 -9 -437 0 -475 4
-522 66 -653 42 -88 159 -206 247 -248 108 -52 179 -67 325 -66 154 0 234 17
352 74 134 65 233 193 278 360 16 56 19 125 22 517 l5 453 -24 9 c-13 5 -82 8
-153 6 l-130 -2 -6 -429 c-5 -409 -6 -432 -28 -497 -29 -90 -91 -155 -176
-187 -49 -18 -76 -21 -150 -18 -113 4 -183 35 -234 103 -72 97 -80 163 -81
648 l0 377 -27 1 c-113 3 -231 4 -248 1z"/>
<path d="M9414 8577 c-11 -6 -14 -31 -14 -105 0 -157 -25 -141 234 -144 l221
-3 5 -565 5 -565 155 0 155 0 5 565 5 565 218 0 c182 0 219 2 228 15 12 17 8
224 -4 237 -11 10 -1194 11 -1213 0z"/>
<path d="M11215 8582 c-36 -8 -50 -36 -216 -402 -323 -712 -429 -956 -429
-980 0 -6 63 -10 160 -10 l160 0 26 58 c14 31 42 99 62 150 l36 92 323 0 322
0 17 -32 c10 -18 38 -85 64 -148 l47 -115 163 -3 c90 -1 167 1 172 6 4 4 -29
84 -73 177 -44 94 -99 213 -121 265 -42 101 -111 250 -238 520 -43 91 -81 174
-84 186 -10 34 -81 190 -98 215 -15 23 -21 24 -139 26 -68 1 -137 -2 -154 -5z
m133 -364 c15 -20 202 -452 202 -469 0 -5 -94 -9 -210 -9 -162 0 -210 3 -210
13 0 7 33 89 74 184 41 94 84 198 96 232 23 63 30 70 48 49z"/>
<path d="M6450 7885 l0 -696 158 3 157 3 3 190 c2 136 6 191 15 197 6 4 71 8
143 8 156 0 129 20 293 -217 62 -89 119 -167 126 -173 13 -11 332 -17 342 -6
6 5 -69 119 -223 336 -41 58 -74 107 -74 111 0 3 19 14 43 26 99 49 175 147
212 277 13 45 16 85 13 175 -6 158 -27 213 -117 301 -79 77 -143 114 -247 140
-70 18 -111 20 -461 20 l-383 0 0 -695z m727 420 c118 -36 178 -119 169 -234
-14 -162 -147 -227 -451 -219 l-120 3 -3 225 c-1 123 0 231 3 239 8 19 328 9
402 -14z"/>
<path d="M14408 6455 c-188 -36 -323 -127 -385 -260 -25 -54 -28 -71 -28 -165
0 -95 3 -110 27 -157 38 -71 86 -117 166 -157 63 -32 120 -50 342 -111 211
-59 270 -93 270 -160 0 -81 -63 -135 -184 -156 -125 -21 -280 7 -433 81 -58
27 -111 50 -118 50 -13 0 -22 -17 -65 -120 -49 -120 -50 -115 30 -155 198
-100 407 -139 615 -116 169 19 264 59 361 153 76 73 104 133 111 237 11 156
-31 249 -145 324 -96 62 -148 82 -343 127 -208 49 -248 63 -288 102 -36 36
-45 59 -37 103 10 50 40 81 101 104 120 45 271 37 454 -25 121 -41 114 -44
159 66 29 71 36 99 33 127 -2 21 -98 63 -200 90 -123 31 -328 40 -443 18z"/>
<path d="M5250 6444 c-16 -5 -118 -214 -290 -594 -56 -124 -131 -288 -167
-365 -37 -77 -89 -189 -118 -250 -67 -143 -79 -174 -71 -182 3 -4 76 -7 162
-7 126 0 157 2 164 14 5 8 35 77 66 153 l57 137 330 -2 330 -3 62 -139 c33
-76 70 -145 80 -152 15 -11 51 -13 165 -10 80 2 148 5 152 5 7 1 -54 146 -103
242 -18 35 -60 127 -94 204 -35 77 -96 214 -137 305 -41 91 -114 252 -162 359
-102 227 -125 273 -140 283 -11 8 -259 9 -286 2z m209 -507 c35 -89 81 -200
103 -245 21 -46 38 -86 38 -88 0 -2 -94 -4 -210 -4 -241 0 -227 -8 -181 98 16
37 52 121 79 187 81 194 91 215 99 215 4 0 37 -73 72 -163z"/>
<path d="M6353 6444 c-10 -4 -13 -154 -13 -700 0 -548 3 -694 13 -695 6 0 204
0 438 0 396 1 432 3 505 22 146 38 232 103 286 217 29 60 30 68 26 165 -3 93
-7 108 -38 165 -27 51 -47 73 -99 110 -36 25 -68 47 -70 49 -3 2 13 22 35 46
55 57 69 82 95 166 49 164 -23 319 -185 395 -39 19 -93 39 -121 46 -52 12
-849 25 -872 14z m784 -273 c57 -26 78 -61 77 -128 -2 -129 -108 -168 -430
-161 l-119 3 -3 153 -3 152 218 0 c192 0 223 -3 260 -19z m48 -551 c95 -46
133 -131 96 -214 -39 -88 -118 -108 -416 -104 l-200 3 -3 172 -2 172 240 -4
c221 -3 244 -5 285 -25z"/>
<path d="M7873 6443 c-10 -4 -13 -153 -13 -699 l0 -694 155 0 155 0 0 694 c0
623 -2 694 -16 700 -19 7 -263 7 -281 -1z"/>
<path d="M8522 6442 c-10 -7 -12 -153 -10 -698 l3 -689 539 -3 c425 -2 541 0
548 10 9 15 11 209 2 232 -5 14 -50 16 -395 16 l-389 0 2 161 3 160 330 2 330
2 0 125 0 125 -332 3 -333 2 0 145 0 145 168 0 c277 -1 568 7 581 14 7 5 11
47 11 125 0 115 -1 119 -22 125 -34 9 -1021 7 -1036 -2z"/>
<path d="M9872 6438 c-15 -15 -18 -1373 -3 -1382 14 -9 286 -10 299 -2 9 5 12
65 12 197 l0 189 148 0 148 0 46 -62 c25 -35 82 -117 125 -183 44 -66 86 -125
94 -132 24 -19 359 -21 359 -2 0 6 -37 61 -83 122 -119 161 -217 303 -217 316
0 6 19 20 42 32 57 29 140 119 177 192 67 134 63 284 -11 440 -74 155 -201
243 -393 272 -130 19 -724 22 -743 3z m709 -268 c130 -36 197 -191 138 -320
-54 -119 -135 -150 -389 -150 l-150 0 0 240 0 240 183 0 c100 0 198 -5 218
-10z"/>
<path d="M11187 6443 c-16 -4 -17 -17 -15 -131 l3 -127 218 -3 217 -2 0 -565
0 -565 55 -1 c30 -1 78 -1 105 -1 28 0 73 0 100 1 l50 1 0 565 c0 445 3 565
13 566 6 1 89 0 183 -1 94 -1 192 1 217 5 l47 7 0 123 0 122 -37 7 c-43 7
-1129 6 -1156 -1z"/>
<path d="M12953 6442 c-7 -4 -33 -53 -59 -107 -25 -55 -81 -174 -124 -265 -82
-174 -129 -278 -215 -475 -29 -66 -96 -211 -149 -322 -53 -110 -96 -206 -96
-212 0 -17 314 -15 328 2 5 6 35 73 65 147 l55 135 330 3 330 2 63 -140 c35
-78 69 -145 75 -151 16 -13 295 -12 308 1 12 12 -12 75 -86 223 -32 65 -71
150 -87 190 -16 39 -84 191 -151 337 -67 146 -150 330 -185 410 -83 192 -98
216 -137 224 -44 9 -251 7 -265 -2z m167 -389 c12 -27 48 -115 81 -197 33 -82
69 -166 79 -187 37 -72 44 -69 -190 -69 -115 0 -210 2 -210 5 0 3 31 78 69
167 37 90 83 200 102 245 19 46 37 83 41 83 4 0 17 -21 28 -47z"/>
</g>
</svg>
